<?xml version="1.0" encoding="UTF-8" standalone="no"?>
<svg
   xmlns:dc="http://purl.org/dc/elements/1.1/"
   xmlns:cc="http://creativecommons.org/ns#"
   xmlns:rdf="http://www.w3.org/1999/02/22-rdf-syntax-ns#"
   xmlns:svg="http://www.w3.org/2000/svg"
   xmlns="http://www.w3.org/2000/svg"
   id="svg3726"
   width="150"
   viewBox="0 0 275 54"
   version="1.0">
  <metadata
     id="metadata3730">
    <rdf:RDF>
      <cc:Work
         rdf:about="">
        <dc:format>image/svg+xml</dc:format>
        <dc:type
           rdf:resource="http://purl.org/dc/dcmitype/StillImage" />
        <dc:title></dc:title>
      </cc:Work>
    </rdf:RDF>
  </metadata>
  <defs
     id="defs3714">
    <pattern
       y="0"
       x="0"
       height="6"
       width="6"
       patternUnits="userSpaceOnUse"
       id="EMFhbasepattern" />
  </defs>
  <path
     id="path3716"
     d="m 2.709084,12.599689 c 0,-3.9318925 3.193415,-7.1253075 7.125308,-7.1253075 H 264.8685 c 3.93189,0 7.10535,3.193415 7.10535,7.1253075 v 28.501229 c 0,3.931892 -3.17346,7.125307 -7.10535,7.125307 H 9.834392 c -3.931893,0 -7.125308,-3.193415 -7.125308,-7.125307 z"
     style="fill:#ed7d31;fill-opacity:1;fill-rule:evenodd;stroke:none" />
  <path
     id="path3718"
     d="m 2.709084,12.599689 c 0,-3.9318925 3.193415,-7.1253075 7.125308,-7.1253075 H 264.8685 c 3.93189,0 7.10535,3.193415 7.10535,7.1253075 v 28.501229 c 0,3.931892 -3.17346,7.125307 -7.10535,7.125307 H 9.834392 c -3.931893,0 -7.125308,-3.193415 -7.125308,-7.125307 z"
     style="fill:none;stroke:#ed7d31;stroke-width:3.99176884px;stroke-linecap:butt;stroke-linejoin:miter;stroke-miterlimit:8;stroke-dasharray:none;stroke-opacity:1" />
  <text
     id="text3724"
     y="34.95266"
     x="14.936996"
     style="font-style:normal;font-variant:normal;font-weight:700;font-size:23.9375px;line-height:125%;font-family:Calibri;text-align:start;letter-spacing:0px;word-spacing:0px;text-anchor:start;fill:#000000;fill-opacity:1;stroke:none"
     xml:space="preserve"><tspan
       id="tspan3722"
       y="34.95266"
       x="14.936996"><tspan
         id="tspan3720"
         style="font-style:normal;font-variant:normal;font-weight:700;font-size:23.9375px;font-family:Calibri;fill:#ffffff"
         dy="0"
         dx="0">EXPERIMENTAL FEATURE</tspan></tspan></text>
</svg>
