<?xml version="1.0" encoding="UTF-8" standalone="no"?>
<svg
   xmlns:dc="http://purl.org/dc/elements/1.1/"
   xmlns:cc="http://creativecommons.org/ns#"
   xmlns:rdf="http://www.w3.org/1999/02/22-rdf-syntax-ns#"
   xmlns:svg="http://www.w3.org/2000/svg"
   xmlns="http://www.w3.org/2000/svg"
   xmlns:sodipodi="http://sodipodi.sourceforge.net/DTD/sodipodi-0.dtd"
   xmlns:inkscape="http://www.inkscape.org/namespaces/inkscape"
   width="297mm"
   height="100mm"
   viewBox="0 0 297 100"
   version="1.1"
   id="svg2091"
   inkscape:version="1.0.2-2 (e86c870879, 2021-01-15)"
   sodipodi:docname="systems_5.svg">
  <defs
     id="defs2085" />
  <sodipodi:namedview
     id="base"
     pagecolor="#ffffff"
     bordercolor="#666666"
     borderopacity="1.0"
     inkscape:pageopacity="0.0"
     inkscape:pageshadow="2"
     inkscape:zoom="1.1575153"
     inkscape:cx="400"
     inkscape:cy="258.0811"
     inkscape:document-units="mm"
     inkscape:current-layer="layer1"
     inkscape:document-rotation="0"
     showgrid="false"
     inkscape:window-width="1920"
     inkscape:window-height="986"
     inkscape:window-x="-11"
     inkscape:window-y="-11"
     inkscape:window-maximized="1"
     width="1e-05mm"
     height="100mm" />
  <metadata
     id="metadata2088">
    <rdf:RDF>
      <cc:Work
         rdf:about="">
        <dc:format>image/svg+xml</dc:format>
        <dc:type
           rdf:resource="http://purl.org/dc/dcmitype/StillImage" />
        <dc:title></dc:title>
      </cc:Work>
    </rdf:RDF>
  </metadata>
  <g
     inkscape:label="Calque 1"
     inkscape:groupmode="layer"
     id="layer1">
    <path
       style="fill:none;stroke:#7f7f7f;stroke-width:0.421443px;stroke-linecap:butt;stroke-linejoin:miter;stroke-miterlimit:8;stroke-dasharray:none;stroke-opacity:1"
       d="m 85.111666,30.26716 c 0,-2.40825 1.951944,-4.35702 4.357018,-4.35702 h 37.286746 c 2.40828,0 4.35707,1.94877 4.35707,4.35702 v 17.42807 c 0,2.40507 -1.94879,4.35702 -4.35707,4.35702 H 89.468684 c -2.405074,0 -4.357018,-1.95195 -4.357018,-4.35702 z"
       id="path4255"
       inkscape:connector-curvature="0" />
    <path
       style="fill:#ffffff;fill-opacity:1;fill-rule:evenodd;stroke:none;stroke-width:0.15875"
       d="m 83.316575,34.70181 c 0,-0.99182 0.80486,-1.79509 1.795091,-1.79509 0.991816,0 1.796676,0.80327 1.796676,1.79509 0,0.99181 -0.80486,1.79509 -1.796676,1.79509 -0.990231,0 -1.795091,-0.80328 -1.795091,-1.79509 z"
       id="path4257"
       inkscape:connector-curvature="0" />
    <path
       style="fill:none;stroke:#ed7d31;stroke-width:0.423027px;stroke-linecap:butt;stroke-linejoin:miter;stroke-miterlimit:8;stroke-dasharray:none;stroke-opacity:1"
       d="m 83.316575,34.70181 c 0,-0.99182 0.80486,-1.79509 1.795091,-1.79509 0.991816,0 1.796676,0.80327 1.796676,1.79509 0,0.99181 -0.80486,1.79509 -1.796676,1.79509 -0.990231,0 -1.795091,-0.80328 -1.795091,-1.79509"
       id="path4259"
       inkscape:connector-curvature="0" />
    <path
       style="fill:#ffffff;fill-opacity:1;fill-rule:evenodd;stroke:none;stroke-width:0.15875"
       d="m 104.52022,25.91014 c 0,-0.99182 0.80487,-1.79668 1.79669,-1.79668 0.99182,0 1.79669,0.80486 1.79669,1.79668 0,0.99182 -0.80487,1.79351 -1.79669,1.79351 -0.99182,0 -1.79669,-0.80169 -1.79669,-1.79351 z"
       id="path4261"
       inkscape:connector-curvature="0" />
    <path
       style="fill:none;stroke:#ffc000;stroke-width:0.421443px;stroke-linecap:butt;stroke-linejoin:miter;stroke-miterlimit:8;stroke-dasharray:none;stroke-opacity:1"
       d="m 104.52022,25.91014 c 0,-0.99182 0.80487,-1.79668 1.79669,-1.79668 0.99182,0 1.79669,0.80486 1.79669,1.79668 0,0.99182 -0.80487,1.79351 -1.79669,1.79351 -0.99182,0 -1.79669,-0.80169 -1.79669,-1.79351"
       id="path4263"
       inkscape:connector-curvature="0" />
    <path
       style="fill:#ffffff;fill-opacity:1;fill-rule:evenodd;stroke:none;stroke-width:0.15875"
       d="m 129.3158,40.7747 c 0,-0.98865 0.80487,-1.79351 1.7967,-1.79351 0.99182,0 1.7967,0.80486 1.7967,1.79351 0,0.99181 -0.80488,1.79668 -1.7967,1.79668 -0.99183,0 -1.7967,-0.80487 -1.7967,-1.79668 z"
       id="path4265"
       inkscape:connector-curvature="0" />
    <path
       style="fill:none;stroke:#92d050;stroke-width:0.421443px;stroke-linecap:butt;stroke-linejoin:miter;stroke-miterlimit:8;stroke-dasharray:none;stroke-opacity:1"
       d="m 129.3158,40.7747 c 0,-0.98865 0.80487,-1.79351 1.7967,-1.79351 0.99182,0 1.7967,0.80486 1.7967,1.79351 0,0.99181 -0.80488,1.79668 -1.7967,1.79668 -0.99183,0 -1.7967,-0.80487 -1.7967,-1.79668"
       id="path4267"
       inkscape:connector-curvature="0" />
    <path
       style="fill:#ffc000;fill-opacity:1;fill-rule:nonzero;stroke:#ffc000;stroke-width:0.00222086px;stroke-linecap:butt;stroke-linejoin:round;stroke-miterlimit:10;stroke-dasharray:none;stroke-opacity:1"
       d="m 106.52922,19.599373 v 3.894371 h -0.42462 v -3.894371 z m 0.42144,3.790089 -0.63375,0.622598 -0.63375,-0.622598 z"
       id="path4269"
       inkscape:connector-curvature="0" />
    <path
       style="fill:#ed7d31;fill-opacity:1;fill-rule:nonzero;stroke:#ed7d31;stroke-width:0.00132665px;stroke-linecap:butt;stroke-linejoin:round;stroke-miterlimit:10;stroke-dasharray:none;stroke-opacity:1"
       d="m 77.125089,34.38492 h 5.557578 v 0.42303 h -5.557578 z m 5.409834,-0.42144 0.88868,0.63375 -0.88868,0.63375 z"
       id="path4271"
       inkscape:connector-curvature="0" />
    <text
       xml:space="preserve"
       style="font-style:normal;font-variant:normal;font-weight:400;font-size:5.90352px;line-height:125%;font-family:Calibri;text-align:start;letter-spacing:0px;word-spacing:0px;text-anchor:start;fill:#000000;fill-opacity:1;stroke:none;stroke-width:0.15875"
       x="90.814522"
       y="44.404011"
       id="text4277"><tspan
         sodipodi:role="line"
         x="90.814522"
         y="44.404011"
         id="tspan4275"
         style="stroke-width:0.15875"><tspan
           dx="0"
           dy="0"
           style="font-style:normal;font-variant:normal;font-weight:400;font-size:5.90352px;font-family:Calibri;fill:#7f7f7f;stroke-width:0.15875"
           id="tspan4273">mult1</tspan></tspan></text>
    <text
       xml:space="preserve"
       style="font-style:italic;font-variant:normal;font-weight:400;font-size:3.80008px;line-height:125%;font-family:Calibri;text-align:start;letter-spacing:0px;word-spacing:0px;text-anchor:start;fill:#000000;fill-opacity:1;stroke:none;stroke-width:0.15875"
       x="90.814522"
       y="49.524708"
       id="text4283"><tspan
         sodipodi:role="line"
         x="90.814522"
         y="49.524708"
         id="tspan4281"
         style="stroke-width:0.15875"><tspan
           dx="0"
           dy="0"
           style="font-style:italic;font-variant:normal;font-weight:400;font-size:3.80008px;font-family:Calibri;fill:#7f7f7f;stroke-width:0.15875"
           id="tspan4279">class: Multiply</tspan></tspan></text>
    <text
       xml:space="preserve"
       style="font-style:normal;font-variant:normal;font-weight:400;font-size:3.80008px;line-height:125%;font-family:Calibri;text-align:start;letter-spacing:0px;word-spacing:0px;text-anchor:start;fill:#000000;fill-opacity:1;stroke:none;stroke-width:0.15875"
       x="108.69643"
       y="17.985109"
       id="text4301"><tspan
         sodipodi:role="line"
         x="108.69643"
         y="17.985109"
         id="tspan4299"
         style="stroke-width:0.15875"><tspan
           dx="0"
           dy="0"
           style="font-style:normal;font-variant:normal;font-weight:400;font-size:3.80008px;font-family:Calibri;fill:#ffc000;stroke-width:0.15875"
           id="tspan4297">data {K1}</tspan></tspan></text>
    <text
       xml:space="preserve"
       style="font-style:normal;font-variant:normal;font-weight:400;font-size:3.80008px;line-height:125%;font-family:Calibri;text-align:start;letter-spacing:0px;word-spacing:0px;text-anchor:start;fill:#000000;fill-opacity:1;stroke:none;stroke-width:0.15875"
       x="71.003922"
       y="40.816341"
       id="text4313"><tspan
         sodipodi:role="line"
         x="71.003922"
         y="40.816341"
         id="tspan4311"
         style="stroke-width:0.15875"><tspan
           dx="0"
           dy="0"
           style="font-style:normal;font-variant:normal;font-weight:400;font-size:3.80008px;font-family:Calibri;fill:#ed7d31;stroke-width:0.15875"
           id="tspan4309">p_in {x}</tspan></tspan></text>
    <text
       xml:space="preserve"
       style="font-style:normal;font-variant:normal;font-weight:400;font-size:3.80008px;line-height:125%;font-family:Calibri;text-align:start;letter-spacing:0px;word-spacing:0px;text-anchor:start;fill:#000000;fill-opacity:1;stroke:none;stroke-width:0.15875"
       x="134.20027"
       y="37.645931"
       id="text4331"><tspan
         sodipodi:role="line"
         x="134.20027"
         y="37.645931"
         id="tspan4329"
         style="stroke-width:0.15875"><tspan
           dx="0"
           dy="0"
           style="font-style:normal;font-variant:normal;font-weight:400;font-size:3.80008px;font-family:Calibri;fill:#92d050;stroke-width:0.15875"
           id="tspan4327">p_out {x}</tspan></tspan></text>
    <path
       style="fill:none;stroke:#7f7f7f;stroke-width:0.424612px;stroke-linecap:butt;stroke-linejoin:miter;stroke-miterlimit:8;stroke-dasharray:none;stroke-opacity:1"
       d="m 159.34299,57.38524 c 0,-2.40191 1.95194,-4.35385 4.35385,-4.35385 h 37.28973 c 2.40191,0 4.35385,1.95194 4.35385,4.35385 v 17.42807 c 0,2.40824 -1.95194,4.36018 -4.35385,4.36018 h -37.28973 c -2.40191,0 -4.35385,-1.95194 -4.35385,-4.36018 z"
       id="path4345"
       inkscape:connector-curvature="0" />
    <path
       style="fill:#ffffff;fill-opacity:1;fill-rule:evenodd;stroke:none;stroke-width:0.15875"
       d="m 157.54948,61.82147 c 0,-0.98864 0.79852,-1.7935 1.79351,-1.7935 0.98864,0 1.7935,0.80486 1.7935,1.7935 0,0.99499 -0.80486,1.79985 -1.7935,1.79985 -0.99499,0 -1.79351,-0.80486 -1.79351,-1.79985 z"
       id="path4347"
       inkscape:connector-curvature="0" />
    <path
       style="fill:none;stroke:#ed7d31;stroke-width:0.424612px;stroke-linecap:butt;stroke-linejoin:miter;stroke-miterlimit:8;stroke-dasharray:none;stroke-opacity:1"
       d="m 157.54948,61.82147 c 0,-0.98864 0.79852,-1.7935 1.79351,-1.7935 0.98864,0 1.7935,0.80486 1.7935,1.7935 0,0.99499 -0.80486,1.79985 -1.7935,1.79985 -0.99499,0 -1.79351,-0.80486 -1.79351,-1.79985"
       id="path4349"
       inkscape:connector-curvature="0" />
    <path
       style="fill:#ffffff;fill-opacity:1;fill-rule:evenodd;stroke:none;stroke-width:0.15875"
       d="m 178.74835,53.03139 c 0,-0.99499 0.80486,-1.79985 1.79985,-1.79985 0.98864,0 1.7935,0.80486 1.7935,1.79985 0,0.98864 -0.80486,1.7935 -1.7935,1.7935 -0.99499,0 -1.79985,-0.80486 -1.79985,-1.7935 z"
       id="path4351"
       inkscape:connector-curvature="0" />
    <path
       style="fill:none;stroke:#ffc000;stroke-width:0.424612px;stroke-linecap:butt;stroke-linejoin:miter;stroke-miterlimit:8;stroke-dasharray:none;stroke-opacity:1"
       d="m 178.74835,53.03139 c 0,-0.99499 0.80486,-1.79985 1.79985,-1.79985 0.98864,0 1.7935,0.80486 1.7935,1.79985 0,0.98864 -0.80486,1.7935 -1.7935,1.7935 -0.99499,0 -1.79985,-0.80486 -1.79985,-1.7935"
       id="path4353"
       inkscape:connector-curvature="0" />
    <path
       style="fill:#ffffff;fill-opacity:1;fill-rule:evenodd;stroke:none;stroke-width:0.15875"
       d="m 203.54691,67.89912 c 0,-0.99499 0.80486,-1.79985 1.79351,-1.79985 0.99499,0 1.79985,0.80486 1.79985,1.79985 0,0.98864 -0.80486,1.7935 -1.79985,1.7935 -0.98865,0 -1.79351,-0.80486 -1.79351,-1.7935 z"
       id="path4355"
       inkscape:connector-curvature="0" />
    <path
       style="fill:none;stroke:#92d050;stroke-width:0.424612px;stroke-linecap:butt;stroke-linejoin:miter;stroke-miterlimit:8;stroke-dasharray:none;stroke-opacity:1"
       d="m 203.54691,67.89912 c 0,-0.99499 0.80486,-1.79985 1.79351,-1.79985 0.99499,0 1.79985,0.80486 1.79985,1.79985 0,0.98864 -0.80486,1.7935 -1.79985,1.7935 -0.98865,0 -1.79351,-0.80486 -1.79351,-1.7935"
       id="path4357"
       inkscape:connector-curvature="0" />
    <path
       style="fill:#ffc000;fill-opacity:1;fill-rule:nonzero;stroke:#ffc000;stroke-width:0.00633748px;stroke-linecap:butt;stroke-linejoin:round;stroke-miterlimit:10;stroke-dasharray:none;stroke-opacity:1"
       d="m 180.75733,42.14993 v 7.92819 h -0.42461 v -7.92819 z m 0.42462,7.71272 -0.63375,1.26749 -0.63375,-1.26749 z"
       id="path4359"
       inkscape:connector-curvature="0" />
    <path
       style="fill:#92d050;fill-opacity:1;fill-rule:nonzero;stroke:#92d050;stroke-width:0.00615799px;stroke-linecap:butt;stroke-linejoin:round;stroke-miterlimit:10;stroke-dasharray:none;stroke-opacity:1"
       d="m 207.14018,67.683613 h 7.4784 v 0.424669 h -7.4784 z m 7.28097,-0.418334 1.19654,0.633841 -1.19654,0.633831 z"
       id="path4361"
       inkscape:connector-curvature="0" />
    <text
       xml:space="preserve"
       style="font-style:normal;font-variant:normal;font-weight:400;font-size:5.90352px;line-height:125%;font-family:Calibri;text-align:start;letter-spacing:0px;word-spacing:0px;text-anchor:start;fill:#000000;fill-opacity:1;stroke:none;stroke-width:0.15875"
       x="165.03448"
       y="71.52018"
       id="text4367"><tspan
         sodipodi:role="line"
         x="165.03448"
         y="71.52018"
         id="tspan4365"
         style="stroke-width:0.15875"><tspan
           dx="0"
           dy="0"
           style="font-style:normal;font-variant:normal;font-weight:400;font-size:5.90352px;font-family:Calibri;fill:#7f7f7f;stroke-width:0.15875"
           id="tspan4363">mult2</tspan></tspan></text>
    <text
       xml:space="preserve"
       style="font-style:italic;font-variant:normal;font-weight:400;font-size:3.80008px;line-height:125%;font-family:Calibri;text-align:start;letter-spacing:0px;word-spacing:0px;text-anchor:start;fill:#000000;fill-opacity:1;stroke:none;stroke-width:0.15875"
       x="165.03448"
       y="76.640846"
       id="text4373"><tspan
         sodipodi:role="line"
         x="165.03448"
         y="76.640846"
         id="tspan4371"
         style="stroke-width:0.15875"><tspan
           dx="0"
           dy="0"
           style="font-style:italic;font-variant:normal;font-weight:400;font-size:3.80008px;font-family:Calibri;fill:#7f7f7f;stroke-width:0.15875"
           id="tspan4369">class: Multiply</tspan></tspan></text>
    <text
       xml:space="preserve"
       style="font-style:normal;font-variant:normal;font-weight:400;font-size:3.80008px;line-height:125%;font-family:Calibri;text-align:start;letter-spacing:0px;word-spacing:0px;text-anchor:start;fill:#000000;fill-opacity:1;stroke:none;stroke-width:0.15875"
       x="182.91615"
       y="45.101215"
       id="text4391"><tspan
         sodipodi:role="line"
         x="182.91615"
         y="45.101215"
         id="tspan4389"
         style="stroke-width:0.15875"><tspan
           dx="0"
           dy="0"
           style="font-style:normal;font-variant:normal;font-weight:400;font-size:3.80008px;font-family:Calibri;fill:#ffc000;stroke-width:0.15875"
           id="tspan4387">data {K1}</tspan></tspan></text>
    <text
       xml:space="preserve"
       style="font-style:normal;font-variant:normal;font-weight:400;font-size:3.80008px;line-height:125%;font-family:Calibri;text-align:start;letter-spacing:0px;word-spacing:0px;text-anchor:start;fill:#000000;fill-opacity:1;stroke:none;stroke-width:0.15875"
       x="145.63873"
       y="67.775276"
       id="text4403"><tspan
         sodipodi:role="line"
         x="145.63873"
         y="67.775276"
         id="tspan4401"
         style="stroke-width:0.15875"><tspan
           dx="0"
           dy="0"
           style="font-style:normal;font-variant:normal;font-weight:400;font-size:3.80008px;font-family:Calibri;fill:#ed7d31;stroke-width:0.15875"
           id="tspan4399">p_in {x}</tspan></tspan></text>
    <text
       xml:space="preserve"
       style="font-style:normal;font-variant:normal;font-weight:400;font-size:3.80008px;line-height:125%;font-family:Calibri;text-align:start;letter-spacing:0px;word-spacing:0px;text-anchor:start;fill:#000000;fill-opacity:1;stroke:none;stroke-width:0.15875"
       x="208.66559"
       y="74.013832"
       id="text4421"><tspan
         sodipodi:role="line"
         x="208.66559"
         y="74.013832"
         id="tspan4419"
         style="stroke-width:0.15875"><tspan
           dx="0"
           dy="0"
           style="font-style:normal;font-variant:normal;font-weight:400;font-size:3.80008px;font-family:Calibri;fill:#92d050;stroke-width:0.15875"
           id="tspan4417">p_out {x}</tspan></tspan></text>
    <path
       style="fill:none;stroke:#7f7f7f;stroke-width:0.424612px;stroke-linecap:butt;stroke-linejoin:miter;stroke-miterlimit:8;stroke-dasharray:none;stroke-opacity:1"
       d="m 66.289349,23.64449 c 0,-6.958521 5.640357,-12.59888 12.598911,-12.59888 h 136.59213 c 6.95855,0 12.59891,5.640359 12.59891,12.59888 v 50.40198 c 0,6.95856 -5.64036,12.59891 -12.59891,12.59891 H 78.88826 c -6.958554,0 -12.598911,-5.64035 -12.598911,-12.59891 z"
       id="path4435"
       inkscape:connector-curvature="0" />
    <text
       xml:space="preserve"
       style="font-style:normal;font-variant:normal;font-weight:400;font-size:5.90352px;line-height:125%;font-family:Calibri;text-align:start;letter-spacing:0px;word-spacing:0px;text-anchor:start;fill:#000000;fill-opacity:1;stroke:none;stroke-width:0.15875"
       x="78.173096"
       y="76.774605"
       id="text4441"><tspan
         sodipodi:role="line"
         x="78.173096"
         y="76.774605"
         id="tspan4439"
         style="stroke-width:0.15875"><tspan
           dx="0"
           dy="0"
           style="font-style:normal;font-variant:normal;font-weight:400;font-size:5.90352px;font-family:Calibri;fill:#7f7f7f;stroke-width:0.15875"
           id="tspan4437">head</tspan></tspan></text>
    <text
       xml:space="preserve"
       style="font-style:italic;font-variant:normal;font-weight:400;font-size:3.80008px;line-height:125%;font-family:Calibri;text-align:start;letter-spacing:0px;word-spacing:0px;text-anchor:start;fill:#000000;fill-opacity:1;stroke:none;stroke-width:0.15875"
       x="78.173096"
       y="81.895287"
       id="text4447"><tspan
         sodipodi:role="line"
         x="78.173096"
         y="81.895287"
         id="tspan4445"
         style="stroke-width:0.15875"><tspan
           dx="0"
           dy="0"
           style="font-style:italic;font-variant:normal;font-weight:400;font-size:3.80008px;font-family:Calibri;fill:#7f7f7f;stroke-width:0.15875"
           id="tspan4443">class: System</tspan></tspan></text>
    <path
       style="fill:#ed7d31;fill-opacity:1;fill-rule:nonzero;stroke:#ed7d31;stroke-width:0.00633748px;stroke-linecap:butt;stroke-linejoin:round;stroke-miterlimit:4;stroke-dasharray:none;stroke-opacity:1"
       d="m 144.63365,53.00604 v 9.03091 h 11.85113 v -0.42461 h -11.64199 l 0.21548,0.20913 v -8.81543 z m 11.63566,9.44918 1.2675,-0.63375 -1.2675,-0.63375 z"
       id="path4455"
       inkscape:connector-curvature="0" />
    <path
       style="fill:#92d050;fill-opacity:1;fill-rule:nonzero;stroke:#92d050;stroke-width:0.00316875px;stroke-linecap:butt;stroke-linejoin:round;stroke-miterlimit:4;stroke-dasharray:none;stroke-opacity:1"
       d="m 132.9092,40.56556 h 12.1459 v 8.97388 h -0.42145 V 40.7747 l 0.20914,0.2123 H 132.9092 Z m 12.56734,8.76474 -0.63375,1.26749 -0.63375,-1.26749 z"
       id="path4457"
       inkscape:connector-curvature="0" />
    <path
       style="fill:#ffffff;fill-opacity:1;fill-rule:evenodd;stroke:none;stroke-width:0.15875"
       d="m 143.65451,51.80192 1.20413,-1.20413 1.20095,1.20413 -1.20095,1.20095 z"
       id="path4459"
       inkscape:connector-curvature="0" />
    <path
       style="fill:none;stroke:#7f7f7f;stroke-width:0.421443px;stroke-linecap:butt;stroke-linejoin:miter;stroke-miterlimit:8;stroke-dasharray:none;stroke-opacity:1"
       d="m 143.65451,51.80192 1.20413,-1.20413 1.20095,1.20413 -1.20095,1.20095 z"
       id="path4461"
       inkscape:connector-curvature="0" />
    <path
       style="fill:#ffffff;fill-opacity:1;stroke:#ff00ff;stroke-width:0.423027px;stroke-linecap:butt;stroke-linejoin:miter;stroke-miterlimit:8;stroke-dasharray:none;stroke-opacity:1"
       d="m 64.677284,34.44202 c 0,-0.99182 0.80486,-1.7951 1.795092,-1.7951 0.991817,0 1.796678,0.80328 1.796678,1.7951 0,0.99181 -0.804861,1.79509 -1.796678,1.79509 -0.990232,0 -1.795092,-0.80328 -1.795092,-1.79509"
       id="path4259-1"
       inkscape:connector-curvature="0" />
    <text
       xml:space="preserve"
       style="font-style:normal;font-variant:normal;font-weight:400;font-size:3.80008px;line-height:125%;font-family:Calibri;text-align:start;letter-spacing:0px;word-spacing:0px;text-anchor:start;fill:#ff00ff;fill-opacity:1;stroke:none;stroke-width:0.15875;"
       x="50.487568"
       y="35.806194"
       id="text4313-4"><tspan
         sodipodi:role="line"
         x="50.487568"
         y="35.806194"
         id="tspan4311-1"
         style="stroke-width:0.15875;fill:#ff00ff;"><tspan
           dx="0"
           dy="0"
           style="font-style:normal;font-variant:normal;font-weight:400;font-size:3.80008px;font-family:Calibri;fill:#ff00ff;stroke-width:0.15875;"
           id="tspan4309-8">p_in {x}</tspan></tspan></text>
    <path
       style="fill:#ffffff;stroke:#ffcc00;stroke-width:0.424612px;stroke-linecap:butt;stroke-linejoin:miter;stroke-miterlimit:8;stroke-dasharray:none;stroke-opacity:1"
       d="m 226.4197,67.88968 c 0,-0.99498 0.80485,-1.79984 1.79349,-1.79984 0.99497,0 1.79983,0.80486 1.79983,1.79984 0,0.98865 -0.80486,1.79351 -1.79983,1.79351 -0.98864,0 -1.79349,-0.80486 -1.79349,-1.79351"
       id="path4357-1"
       inkscape:connector-curvature="0" />
    <text
       xml:space="preserve"
       style="font-style:normal;font-variant:normal;font-weight:400;font-size:3.80008px;line-height:125%;font-family:Calibri;text-align:start;letter-spacing:0px;word-spacing:0px;text-anchor:start;fill:#ffd42a;fill-opacity:1;stroke:none;stroke-width:0.15875;"
       x="232.14195"
       y="72.974358"
       id="text4421-3"><tspan
         sodipodi:role="line"
         x="232.14195"
         y="72.974358"
         id="tspan4419-1"
         style="stroke-width:0.15875;fill:#ffd42a;"><tspan
           dx="0"
           dy="0"
           style="font-style:normal;font-variant:normal;font-weight:400;font-size:3.80008px;font-family:Calibri;fill:#ffd42a;stroke-width:0.15875;"
           id="tspan4417-0">p_out {x}</tspan></tspan></text>
    <path
       style="fill:#ffffff;stroke:#7f7f7f;stroke-width:0.421443px;stroke-linecap:butt;stroke-linejoin:miter;stroke-miterlimit:8;stroke-dasharray:none;stroke-opacity:1"
       d="m 74.094837,34.655218 1.204124,-1.20413 1.200944,1.20413 -1.200944,1.20095 z"
       id="path4461-9"
       inkscape:connector-curvature="0" />
    <path
       style="fill:#ffffff;stroke:#7f7f7f;stroke-width:0.421443px;stroke-linecap:butt;stroke-linejoin:miter;stroke-miterlimit:8;stroke-dasharray:none;stroke-opacity:1"
       d="m 215.75669,68.170115 1.20413,-1.20413 1.20095,1.20413 -1.20095,1.20095 z"
       id="path4461-5"
       inkscape:connector-curvature="0" />
    <path
       style="fill:#ff00ff;fill-opacity:1;fill-rule:nonzero;stroke:#ed7d31;stroke-width:0.00132665px;stroke-linecap:butt;stroke-linejoin:round;stroke-miterlimit:10;stroke-dasharray:none;stroke-opacity:1"
       d="m 68.276954,34.303072 h 5.557578 v 0.42303 h -5.557578 z m 5.409834,-0.421439 0.88868,0.633749 -0.88868,0.63375 z"
       id="path4271-0"
       inkscape:connector-curvature="0" />
    <path
       style="fill:#ffd42a;fill-opacity:1;fill-rule:nonzero;stroke:#92d050;stroke-width:0.00615799px;stroke-linecap:butt;stroke-linejoin:round;stroke-miterlimit:10;stroke-dasharray:none;stroke-opacity:1"
       d="m 218.27472,67.900948 h 7.4784 v 0.424669 h -7.4784 z m 7.28097,-0.418334 1.19654,0.633841 -1.19654,0.633831 z"
       id="path4361-7"
       inkscape:connector-curvature="0" />
    <text
       xml:space="preserve"
       style="font-style:normal;font-variant:normal;font-weight:400;font-size:3.80008px;line-height:125%;font-family:Calibri;text-align:start;letter-spacing:0px;word-spacing:0px;text-anchor:start;fill:#d35f5f;fill-opacity:1;stroke:none;stroke-width:0.15875;"
       x="109.2506"
       y="8.312809"
       id="text4301-9"><tspan
         sodipodi:role="line"
         x="109.2506"
         y="8.312809"
         id="tspan4299-9"
         style="stroke-width:0.15875;fill:#d35f5f;"><tspan
           dx="0"
           dy="0"
           style="font-style:normal;font-variant:normal;font-weight:400;font-size:3.80008px;font-family:Calibri;fill:#d35f5f;stroke-width:0.15875;"
           id="tspan4297-6">data {K11}</tspan></tspan></text>
    <text
       xml:space="preserve"
       style="font-style:normal;font-variant:normal;font-weight:400;font-size:3.80008px;line-height:125%;font-family:Calibri;text-align:start;letter-spacing:0px;word-spacing:0px;text-anchor:start;fill:#d35f5f;fill-opacity:1;stroke:none;stroke-width:0.15875"
       x="183.92386"
       y="8.6952639"
       id="text4391-5"><tspan
         sodipodi:role="line"
         x="183.92386"
         y="8.6952639"
         id="tspan4389-1"
         style="fill:#d35f5f;stroke-width:0.15875"><tspan
           dx="0"
           dy="0"
           style="font-style:normal;font-variant:normal;font-weight:400;font-size:3.80008px;font-family:Calibri;fill:#d35f5f;stroke-width:0.15875"
           id="tspan4387-1">data {K12}</tspan></tspan></text>
    <path
       style="fill:#ffffff;stroke:#7f7f7f;stroke-width:0.421443px;stroke-linecap:butt;stroke-linejoin:miter;stroke-miterlimit:8;stroke-dasharray:none;stroke-opacity:1"
       d="m 105.0049,18.413581 1.20413,-1.20413 1.20096,1.20413 -1.20096,1.20095 z"
       id="path4461-9-7"
       inkscape:connector-curvature="0" />
    <path
       style="fill:#ffffff;stroke:#7f7f7f;stroke-width:0.421443px;stroke-linecap:butt;stroke-linejoin:miter;stroke-miterlimit:8;stroke-dasharray:none;stroke-opacity:1"
       d="m 179.25226,43.797758 1.20413,-1.20413 1.20094,1.20413 -1.20094,1.20095 z"
       id="path4461-9-4"
       inkscape:connector-curvature="0" />
    <path
       style="fill:#d35f5f;fill-opacity:1;fill-rule:nonzero;stroke:#ffc000;stroke-width:0.00244021px;stroke-linecap:butt;stroke-linejoin:round;stroke-miterlimit:10;stroke-dasharray:none;stroke-opacity:1"
       d="m 106.52041,11.414179 v 4.701625 h -0.42462 v -4.701625 z m 0.42144,4.575726 -0.63375,0.751655 -0.63375,-0.751655 z"
       id="path4269-6"
       inkscape:connector-curvature="0" />
    <path
       style="fill:#d35f5f;fill-opacity:1;fill-rule:nonzero;stroke:#ffc000;stroke-width:0.0112719px;stroke-linecap:butt;stroke-linejoin:round;stroke-miterlimit:10;stroke-dasharray:none;stroke-opacity:1"
       d="M 180.94286,13.042686 V 38.12312 h -0.42461 V 13.042686 Z m 0.42462,24.398805 -0.63375,4.009642 -0.63375,-4.009642 z"
       id="path4359-5"
       inkscape:connector-curvature="0" />
    <path
       style="fill:#ffffff;stroke:#d35f5f;stroke-width:0.424612px;stroke-linecap:butt;stroke-linejoin:miter;stroke-miterlimit:8;stroke-dasharray:none;stroke-opacity:1"
       d="m 178.93074,10.926018 c 0,-0.9949797 0.80485,-1.7998394 1.79349,-1.7998394 0.99497,0 1.79983,0.8048597 1.79983,1.7998394 0,0.98865 -0.80486,1.79351 -1.79983,1.79351 -0.98864,0 -1.79349,-0.80486 -1.79349,-1.79351"
       id="path4357-1-9"
       inkscape:connector-curvature="0" />
    <path
       style="fill:#ffffff;stroke:#d35f5f;stroke-width:0.424612px;stroke-linecap:butt;stroke-linejoin:miter;stroke-miterlimit:8;stroke-dasharray:none;stroke-opacity:1"
       d="m 104.72502,11.216071 c 0,-0.99498 0.80485,-1.7998394 1.79349,-1.7998394 0.99497,0 1.79983,0.8048594 1.79983,1.7998394 0,0.98865 -0.80486,1.79351 -1.79983,1.79351 -0.98864,0 -1.79349,-0.80486 -1.79349,-1.79351"
       id="path4357-1-3"
       inkscape:connector-curvature="0" />
  </g>
</svg>
