<?xml version="1.0" encoding="UTF-8" standalone="no"?>
<svg
   xmlns:dc="http://purl.org/dc/elements/1.1/"
   xmlns:cc="http://creativecommons.org/ns#"
   xmlns:rdf="http://www.w3.org/1999/02/22-rdf-syntax-ns#"
   xmlns:svg="http://www.w3.org/2000/svg"
   xmlns="http://www.w3.org/2000/svg"
   xmlns:sodipodi="http://sodipodi.sourceforge.net/DTD/sodipodi-0.dtd"
   xmlns:inkscape="http://www.inkscape.org/namespaces/inkscape"
   version="1.0"
   height="300"
   viewBox="0 0 1125 500"
   id="svg4463"
   sodipodi:docname="systems_3.svg"
   inkscape:version="1.0.2-2 (e86c870879, 2021-01-15)">
  <metadata
     id="metadata4467">
    <rdf:RDF>
      <cc:Work
         rdf:about="">
        <dc:format>image/svg+xml</dc:format>
        <dc:type
           rdf:resource="http://purl.org/dc/dcmitype/StillImage" />
        <dc:title></dc:title>
      </cc:Work>
    </rdf:RDF>
  </metadata>
  <sodipodi:namedview
     pagecolor="#ffffff"
     bordercolor="#666666"
     borderopacity="1"
     objecttolerance="10"
     gridtolerance="10"
     guidetolerance="10"
     inkscape:pageopacity="0"
     inkscape:pageshadow="2"
     inkscape:window-width="1920"
     inkscape:window-height="986"
     id="namedview4465"
     showgrid="false"
     fit-margin-top="0"
     fit-margin-left="0"
     fit-margin-right="0"
     fit-margin-bottom="0"
     inkscape:zoom="0.27777777"
     inkscape:cx="500.52111"
     inkscape:cy="249.41957"
     inkscape:window-x="-11"
     inkscape:window-y="-11"
     inkscape:window-maximized="1"
     inkscape:current-layer="svg4463"
     inkscape:document-rotation="0" />
  <defs
     id="defs4253">
    <pattern
       id="EMFhbasepattern"
       patternUnits="userSpaceOnUse"
       width="6"
       height="6"
       x="0"
       y="0" />
  </defs>
  <path
     style="fill:none;stroke:#7f7f7f;stroke-width:2.65475559px;stroke-linecap:butt;stroke-linejoin:miter;stroke-miterlimit:8;stroke-dasharray:none;stroke-opacity:1"
     d="m 119.90314,122.41817 c 0,-15.17003 12.29571,-27.445783 27.44578,-27.445783 h 234.87601 c 15.17004,0 27.44579,12.275753 27.44579,27.445783 V 232.2013 c 0,15.15007 -12.27575,27.44578 -27.44579,27.44578 H 147.34892 c -15.15007,0 -27.44578,-12.29571 -27.44578,-27.44578 z"
     id="path4255"
     inkscape:connector-curvature="0" />
  <path
     style="fill:#ffffff;fill-opacity:1;fill-rule:evenodd;stroke:none"
     d="m 108.59548,150.35299 c 0,-6.24766 5.06998,-11.30767 11.30766,-11.30767 6.24766,0 11.31764,5.06001 11.31764,11.30767 0,6.24765 -5.06998,11.30766 -11.31764,11.30766 -6.23768,0 -11.30766,-5.06001 -11.30766,-11.30766 z"
     id="path4257"
     inkscape:connector-curvature="0" />
  <path
     style="fill:none;stroke:#ed7d31;stroke-width:2.66473603px;stroke-linecap:butt;stroke-linejoin:miter;stroke-miterlimit:8;stroke-dasharray:none;stroke-opacity:1"
     d="m 108.59548,150.35299 c 0,-6.24766 5.06998,-11.30767 11.30766,-11.30767 6.24766,0 11.31764,5.06001 11.31764,11.30767 0,6.24765 -5.06998,11.30766 -11.31764,11.30766 -6.23768,0 -11.30766,-5.06001 -11.30766,-11.30766"
     id="path4259"
     inkscape:connector-curvature="0" />
  <path
     style="fill:#ffffff;fill-opacity:1;fill-rule:evenodd;stroke:none"
     d="m 242.16162,94.972387 c 0,-6.247659 5.06999,-11.317643 11.31765,-11.317643 6.24765,0 11.31764,5.069984 11.31764,11.317643 0,6.247663 -5.06999,11.297683 -11.31764,11.297683 -6.24766,0 -11.31765,-5.05002 -11.31765,-11.297683 z"
     id="path4261"
     inkscape:connector-curvature="0" />
  <path
     style="fill:none;stroke:#ffc000;stroke-width:2.65475559px;stroke-linecap:butt;stroke-linejoin:miter;stroke-miterlimit:8;stroke-dasharray:none;stroke-opacity:1"
     d="m 242.16162,94.972387 c 0,-6.247659 5.06999,-11.317643 11.31765,-11.317643 6.24765,0 11.31764,5.069984 11.31764,11.317643 0,6.247663 -5.06999,11.297683 -11.31764,11.297683 -6.24766,0 -11.31765,-5.05002 -11.31765,-11.297683"
     id="path4263"
     inkscape:connector-curvature="0" />
  <path
     style="fill:#ffffff;fill-opacity:1;fill-rule:evenodd;stroke:none"
     d="m 398.35307,188.60742 c 0,-6.2277 5.06999,-11.29769 11.31765,-11.29769 6.24765,0 11.31764,5.06999 11.31764,11.29769 0,6.24765 -5.06999,11.31764 -11.31764,11.31764 -6.24766,0 -11.31765,-5.06999 -11.31765,-11.31764 z"
     id="path4265"
     inkscape:connector-curvature="0" />
  <path
     style="fill:none;stroke:#92d050;stroke-width:2.65475559px;stroke-linecap:butt;stroke-linejoin:miter;stroke-miterlimit:8;stroke-dasharray:none;stroke-opacity:1"
     d="m 398.35307,188.60742 c 0,-6.2277 5.06999,-11.29769 11.31765,-11.29769 6.24765,0 11.31764,5.06999 11.31764,11.29769 0,6.24765 -5.06999,11.31764 -11.31764,11.31764 -6.24766,0 -11.31765,-5.06999 -11.31765,-11.31764"
     id="path4267"
     inkscape:connector-curvature="0" />
  <path
     style="fill:#ffc000;fill-opacity:1;fill-rule:nonzero;stroke:#ffc000;stroke-width:0.01996057px;stroke-linecap:butt;stroke-linejoin:round;stroke-miterlimit:10;stroke-dasharray:none;stroke-opacity:1"
     d="m 254.81662,26.427793 v 49.941343 h -2.67471 V 26.427793 Z m 2.65476,48.603985 -3.99211,7.984227 -3.99212,-7.984227 z"
     id="path4269"
     inkscape:connector-curvature="0" />
  <path
     style="fill:#ed7d31;fill-opacity:1;fill-rule:nonzero;stroke:#ed7d31;stroke-width:0.00998028px;stroke-linecap:butt;stroke-linejoin:round;stroke-miterlimit:10;stroke-dasharray:none;stroke-opacity:1"
     d="m 52.037203,149.68431 h 49.931367 v 2.66473 H 52.037203 Z m 48.603987,-2.65476 7.98423,3.99212 -7.98423,3.99211 z"
     id="path4271"
     inkscape:connector-curvature="0" />
  <text
     xml:space="preserve"
     style="font-style:normal;font-variant:normal;font-weight:400;font-size:37.1875px;line-height:125%;font-family:Calibri;text-align:start;letter-spacing:0px;word-spacing:0px;text-anchor:start;fill:#000000;fill-opacity:1;stroke:none"
     x="155.82651"
     y="211.46892"
     id="text4277"><tspan
       sodipodi:role="line"
       x="155.82651"
       y="211.46892"
       id="tspan4275"><tspan
         dx="0"
         dy="0"
         style="font-style:normal;font-variant:normal;font-weight:400;font-size:37.1875px;font-family:Calibri;fill:#7f7f7f"
         id="tspan4273">mult1</tspan></tspan></text>
  <text
     xml:space="preserve"
     style="font-style:italic;font-variant:normal;font-weight:400;font-size:23.9375px;line-height:125%;font-family:Calibri;text-align:start;letter-spacing:0px;word-spacing:0px;text-anchor:start;fill:#000000;fill-opacity:1;stroke:none"
     x="155.82651"
     y="243.7252"
     id="text4283"><tspan
       sodipodi:role="line"
       x="155.82651"
       y="243.7252"
       id="tspan4281"><tspan
         dx="0"
         dy="0"
         style="font-style:italic;font-variant:normal;font-weight:400;font-size:23.9375px;font-family:Calibri;fill:#7f7f7f"
         id="tspan4279">class: Multiply</tspan></tspan></text>
  <text
     xml:space="preserve"
     style="font-style:normal;font-variant:normal;font-weight:400;font-size:23.9375px;line-height:125%;font-family:Calibri;text-align:start;letter-spacing:0px;word-spacing:0px;text-anchor:start;fill:#000000;fill-opacity:1;stroke:none"
     x="268.46875"
     y="45.050694"
     id="text4301"><tspan
       sodipodi:role="line"
       x="268.46875"
       y="45.050694"
       id="tspan4299"><tspan
         dx="0"
         dy="0"
         style="font-style:normal;font-variant:normal;font-weight:400;font-size:23.9375px;font-family:Calibri;fill:#ffc000"
         id="tspan4297">data {K1}</tspan></tspan></text>
  <text
     xml:space="preserve"
     style="font-style:normal;font-variant:normal;font-weight:400;font-size:23.9375px;line-height:125%;font-family:Calibri;text-align:start;letter-spacing:0px;word-spacing:0px;text-anchor:start;fill:#000000;fill-opacity:1;stroke:none"
     x="31.035332"
     y="188.86948"
     id="text4313"><tspan
       sodipodi:role="line"
       x="31.035332"
       y="188.86948"
       id="tspan4311"><tspan
         dx="0"
         dy="0"
         style="font-style:normal;font-variant:normal;font-weight:400;font-size:23.9375px;font-family:Calibri;fill:#ed7d31"
         id="tspan4309">p_in {x}</tspan></tspan></text>
  <text
     xml:space="preserve"
     style="font-style:normal;font-variant:normal;font-weight:400;font-size:23.9375px;line-height:125%;font-family:Calibri;text-align:start;letter-spacing:0px;word-spacing:0px;text-anchor:start;fill:#000000;fill-opacity:1;stroke:none"
     x="429.12326"
     y="168.89821"
     id="text4331"><tspan
       sodipodi:role="line"
       x="429.12326"
       y="168.89821"
       id="tspan4329"><tspan
         dx="0"
         dy="0"
         style="font-style:normal;font-variant:normal;font-weight:400;font-size:23.9375px;font-family:Calibri;fill:#92d050"
         id="tspan4327">p_out {x}</tspan></tspan></text>
  <path
     style="fill:none;stroke:#7f7f7f;stroke-width:2.67471623px;stroke-linecap:butt;stroke-linejoin:miter;stroke-miterlimit:8;stroke-dasharray:none;stroke-opacity:1"
     d="m 587.49942,293.24072 c 0,-15.13011 12.29571,-27.42582 27.42582,-27.42582 h 234.89598 c 15.13011,0 27.42582,12.29571 27.42582,27.42582 v 109.78313 c 0,15.17003 -12.29571,27.46574 -27.42582,27.46574 H 614.92524 c -15.13011,0 -27.42582,-12.29571 -27.42582,-27.46574 z"
     id="path4345"
     inkscape:connector-curvature="0" />
  <path
     style="fill:#ffffff;fill-opacity:1;fill-rule:evenodd;stroke:none"
     d="m 576.20174,321.18551 c 0,-6.22769 5.03006,-11.29768 11.29768,-11.29768 6.2277,0 11.29768,5.06999 11.29768,11.29768 0,6.26762 -5.06998,11.33761 -11.29768,11.33761 -6.26762,0 -11.29768,-5.06999 -11.29768,-11.33761 z"
     id="path4347"
     inkscape:connector-curvature="0" />
  <path
     style="fill:none;stroke:#ed7d31;stroke-width:2.67471623px;stroke-linecap:butt;stroke-linejoin:miter;stroke-miterlimit:8;stroke-dasharray:none;stroke-opacity:1"
     d="m 576.20174,321.18551 c 0,-6.22769 5.03006,-11.29768 11.29768,-11.29768 6.2277,0 11.29768,5.06999 11.29768,11.29768 0,6.26762 -5.06998,11.33761 -11.29768,11.33761 -6.26762,0 -11.29768,-5.06999 -11.29768,-11.33761"
     id="path4349"
     inkscape:connector-curvature="0" />
  <path
     style="fill:#ffffff;fill-opacity:1;fill-rule:evenodd;stroke:none"
     d="m 709.73795,265.8149 c 0,-6.26762 5.06998,-11.33761 11.3376,-11.33761 6.2277,0 11.29768,5.06999 11.29768,11.33761 0,6.22769 -5.06998,11.29768 -11.29768,11.29768 -6.26762,0 -11.3376,-5.06999 -11.3376,-11.29768 z"
     id="path4351"
     inkscape:connector-curvature="0" />
  <path
     style="fill:none;stroke:#ffc000;stroke-width:2.67471623px;stroke-linecap:butt;stroke-linejoin:miter;stroke-miterlimit:8;stroke-dasharray:none;stroke-opacity:1"
     d="m 709.73795,265.8149 c 0,-6.26762 5.06998,-11.33761 11.3376,-11.33761 6.2277,0 11.29768,5.06999 11.29768,11.33761 0,6.22769 -5.06998,11.29768 -11.29768,11.29768 -6.26762,0 -11.3376,-5.06999 -11.3376,-11.29768"
     id="path4353"
     inkscape:connector-curvature="0" />
  <path
     style="fill:#ffffff;fill-opacity:1;fill-rule:evenodd;stroke:none"
     d="m 865.94936,359.46988 c 0,-6.26761 5.06998,-11.3376 11.29768,-11.3376 6.26762,0 11.3376,5.06999 11.3376,11.3376 0,6.2277 -5.06998,11.29769 -11.3376,11.29769 -6.2277,0 -11.29768,-5.06999 -11.29768,-11.29769 z"
     id="path4355"
     inkscape:connector-curvature="0" />
  <path
     style="fill:none;stroke:#92d050;stroke-width:2.67471623px;stroke-linecap:butt;stroke-linejoin:miter;stroke-miterlimit:8;stroke-dasharray:none;stroke-opacity:1"
     d="m 865.94936,359.46988 c 0,-6.26761 5.06998,-11.3376 11.29768,-11.3376 6.26762,0 11.3376,5.06999 11.3376,11.3376 0,6.2277 -5.06998,11.29769 -11.3376,11.29769 -6.2277,0 -11.29768,-5.06999 -11.29768,-11.29769"
     id="path4357"
     inkscape:connector-curvature="0" />
  <path
     style="fill:#ffc000;fill-opacity:1;fill-rule:nonzero;stroke:#ffc000;stroke-width:0.03992114px;stroke-linecap:butt;stroke-linejoin:round;stroke-miterlimit:10;stroke-dasharray:none;stroke-opacity:1"
     d="m 722.39295,197.2703 v 49.94135 h -2.67472 V 197.2703 Z m 2.67471,48.58403 -3.99211,7.98423 -3.99212,-7.98423 z"
     id="path4359"
     inkscape:connector-curvature="0" />
  <path
     style="fill:#92d050;fill-opacity:1;fill-rule:nonzero;stroke:#92d050;stroke-width:0.03992114px;stroke-linecap:butt;stroke-linejoin:round;stroke-miterlimit:10;stroke-dasharray:none;stroke-opacity:1"
     d="m 888.58464,358.11257 h 49.90142 v 2.67471 h -49.90142 z m 48.58402,-2.6348 7.98423,3.99211 -7.98423,3.99212 z"
     id="path4361"
     inkscape:connector-curvature="0" />
  <text
     xml:space="preserve"
     style="font-style:normal;font-variant:normal;font-weight:400;font-size:37.1875px;line-height:125%;font-family:Calibri;text-align:start;letter-spacing:0px;word-spacing:0px;text-anchor:start;fill:#000000;fill-opacity:1;stroke:none"
     x="623.35858"
     y="382.27902"
     id="text4367"><tspan
       sodipodi:role="line"
       x="623.35858"
       y="382.27902"
       id="tspan4365"><tspan
         dx="0"
         dy="0"
         style="font-style:normal;font-variant:normal;font-weight:400;font-size:37.1875px;font-family:Calibri;fill:#7f7f7f"
         id="tspan4363">mult2</tspan></tspan></text>
  <text
     xml:space="preserve"
     style="font-style:italic;font-variant:normal;font-weight:400;font-size:23.9375px;line-height:125%;font-family:Calibri;text-align:start;letter-spacing:0px;word-spacing:0px;text-anchor:start;fill:#000000;fill-opacity:1;stroke:none"
     x="623.35858"
     y="414.53528"
     id="text4373"><tspan
       sodipodi:role="line"
       x="623.35858"
       y="414.53528"
       id="tspan4371"><tspan
         dx="0"
         dy="0"
         style="font-style:italic;font-variant:normal;font-weight:400;font-size:23.9375px;font-family:Calibri;fill:#7f7f7f"
         id="tspan4369">class: Multiply</tspan></tspan></text>
  <text
     xml:space="preserve"
     style="font-style:normal;font-variant:normal;font-weight:400;font-size:23.9375px;line-height:125%;font-family:Calibri;text-align:start;letter-spacing:0px;word-spacing:0px;text-anchor:start;fill:#000000;fill-opacity:1;stroke:none"
     x="736.00085"
     y="215.86076"
     id="text4391"><tspan
       sodipodi:role="line"
       x="736.00085"
       y="215.86076"
       id="tspan4389"><tspan
         dx="0"
         dy="0"
         style="font-style:normal;font-variant:normal;font-weight:400;font-size:23.9375px;font-family:Calibri;fill:#ffc000"
         id="tspan4387">data {K1}</tspan></tspan></text>
  <text
     xml:space="preserve"
     style="font-style:normal;font-variant:normal;font-weight:400;font-size:23.9375px;line-height:125%;font-family:Calibri;text-align:start;letter-spacing:0px;word-spacing:0px;text-anchor:start;fill:#000000;fill-opacity:1;stroke:none"
     x="501.17789"
     y="358.68915"
     id="text4403"><tspan
       sodipodi:role="line"
       x="501.17789"
       y="358.68915"
       id="tspan4401"><tspan
         dx="0"
         dy="0"
         style="font-style:normal;font-variant:normal;font-weight:400;font-size:23.9375px;font-family:Calibri;fill:#ed7d31"
         id="tspan4399">p_in {x}</tspan></tspan></text>
  <text
     xml:space="preserve"
     style="font-style:normal;font-variant:normal;font-weight:400;font-size:23.9375px;line-height:125%;font-family:Calibri;text-align:start;letter-spacing:0px;word-spacing:0px;text-anchor:start;fill:#000000;fill-opacity:1;stroke:none"
     x="898.20203"
     y="397.98709"
     id="text4421"><tspan
       sodipodi:role="line"
       x="898.20203"
       y="397.98709"
       id="tspan4419"><tspan
         dx="0"
         dy="0"
         style="font-style:normal;font-variant:normal;font-weight:400;font-size:23.9375px;font-family:Calibri;fill:#92d050"
         id="tspan4417">p_out {x}</tspan></tspan></text>
  <path
     style="fill:none;stroke:#7f7f7f;stroke-width:2.67471623px;stroke-linecap:butt;stroke-linejoin:miter;stroke-miterlimit:8;stroke-dasharray:none;stroke-opacity:1"
     d="M 1.3373581,80.700579 C 1.3373581,36.86717 36.867171,1.3373581 80.700579,1.3373581 H 941.12086 c 43.83341,0 79.36324,35.5298119 79.36324,79.3632209 V 398.19339 c 0,43.83341 -35.52983,79.36322 -79.36324,79.36322 H 80.700579 c -43.833408,0 -79.3632209,-35.52981 -79.3632209,-79.36322 z"
     id="path4435"
     inkscape:connector-curvature="0" />
  <text
     xml:space="preserve"
     style="font-style:normal;font-variant:normal;font-weight:400;font-size:37.1875px;line-height:125%;font-family:Calibri;text-align:start;letter-spacing:0px;word-spacing:0px;text-anchor:start;fill:#000000;fill-opacity:1;stroke:none"
     x="76.195457"
     y="415.37781"
     id="text4441"><tspan
       sodipodi:role="line"
       x="76.195457"
       y="415.37781"
       id="tspan4439"><tspan
         dx="0"
         dy="0"
         style="font-style:normal;font-variant:normal;font-weight:400;font-size:37.1875px;font-family:Calibri;fill:#7f7f7f"
         id="tspan4437">head</tspan></tspan></text>
  <text
     xml:space="preserve"
     style="font-style:italic;font-variant:normal;font-weight:400;font-size:23.9375px;line-height:125%;font-family:Calibri;text-align:start;letter-spacing:0px;word-spacing:0px;text-anchor:start;fill:#000000;fill-opacity:1;stroke:none"
     x="76.195457"
     y="447.63406"
     id="text4447"><tspan
       sodipodi:role="line"
       x="76.195457"
       y="447.63406"
       id="tspan4445"><tspan
         dx="0"
         dy="0"
         style="font-style:italic;font-variant:normal;font-weight:400;font-size:23.9375px;font-family:Calibri;fill:#7f7f7f"
         id="tspan4443">class: System</tspan></tspan></text>
  <path
     style="fill:#ed7d31;fill-opacity:1;fill-rule:nonzero;stroke:#ed7d31;stroke-width:0.03992114px;stroke-linecap:butt;stroke-linejoin:round;stroke-miterlimit:4;stroke-dasharray:none;stroke-opacity:1"
     d="m 494.84246,265.65521 v 56.88762 h 74.65253 v -2.67471 h -73.33513 l 1.35732,1.31739 v -55.5303 z m 73.29521,59.52242 7.98423,-3.99212 -7.98423,-3.99211 z"
     id="path4455"
     inkscape:connector-curvature="0" />
  <path
     style="fill:#92d050;fill-opacity:1;fill-rule:nonzero;stroke:#92d050;stroke-width:0.01996057px;stroke-linecap:butt;stroke-linejoin:round;stroke-miterlimit:4;stroke-dasharray:none;stroke-opacity:1"
     d="m 420.98836,187.29002 h 76.50886 v 56.52833 h -2.65476 v -55.21093 l 1.3174,1.33735 h -75.1715 z m 79.16361,55.21093 -3.99211,7.98423 -3.99211,-7.98423 z"
     id="path4457"
     inkscape:connector-curvature="0" />
  <path
     style="fill:#ffffff;fill-opacity:1;fill-rule:evenodd;stroke:none"
     d="m 488.67465,258.0702 7.58501,-7.58502 7.56506,7.58502 -7.56506,7.56505 z"
     id="path4459"
     inkscape:connector-curvature="0" />
  <path
     style="fill:none;stroke:#7f7f7f;stroke-width:2.65475559px;stroke-linecap:butt;stroke-linejoin:miter;stroke-miterlimit:8;stroke-dasharray:none;stroke-opacity:1"
     d="m 488.67465,258.0702 7.58501,-7.58502 7.56506,7.58502 -7.56506,7.56505 z"
     id="path4461"
     inkscape:connector-curvature="0" />
</svg>
