<?xml version="1.0" encoding="UTF-8" standalone="no"?>
<svg
   xmlns:dc="http://purl.org/dc/elements/1.1/"
   xmlns:cc="http://creativecommons.org/ns#"
   xmlns:rdf="http://www.w3.org/1999/02/22-rdf-syntax-ns#"
   xmlns:svg="http://www.w3.org/2000/svg"
   xmlns="http://www.w3.org/2000/svg"
   id="svg868"
   height="186"
   viewBox="0 0 335.35 149"
   version="1.0">
  <metadata
     id="metadata872">
    <rdf:RDF>
      <cc:Work
         rdf:about="">
        <dc:format>image/svg+xml</dc:format>
        <dc:type
           rdf:resource="http://purl.org/dc/dcmitype/StillImage" />
        <dc:title></dc:title>
      </cc:Work>
    </rdf:RDF>
  </metadata>
  <defs
     id="defs816">
    <pattern
       y="0"
       x="0"
       height="6"
       width="6"
       patternUnits="userSpaceOnUse"
       id="EMFhbasepattern" />
  </defs>
  <path
     id="path818"
     d="m 57.662637,136.33324 c 0,-61.454066 49.818973,-111.293032 111.273043,-111.293032 61.47405,0 111.29303,49.838966 111.29303,111.293032 h -55.63652 c 0,-30.72703 -24.90949,-55.63652 -55.65651,-55.63652 -30.72704,0 -55.63652,24.90949 -55.63652,55.63652 z"
     style="fill:#ed7d31;fill-opacity:1;fill-rule:evenodd;stroke:none" />
  <path
     id="path820"
     d="m 57.662637,136.33324 c 0,-61.454066 49.818973,-111.293032 111.273043,-111.293032 61.47405,0 111.29303,49.838966 111.29303,111.293032 h -55.63652 c 0,-30.72703 -24.90949,-55.63652 -55.65651,-55.63652 -30.72704,0 -55.63652,24.90949 -55.63652,55.63652 z"
     style="fill:none;stroke:#a5a5a5;stroke-width:1.99915624px;stroke-linecap:butt;stroke-linejoin:miter;stroke-miterlimit:8;stroke-dasharray:none;stroke-opacity:1" />
  <path
     id="path822"
     d="M 66.798782,92.171876 C 91.188488,35.755686 156.70084,9.7866465 213.11703,34.196344 c 20.59131,8.896245 38.00396,23.809951 49.95891,42.781944 L 216.47561,106.36589 C 199.9226,80.116964 165.23724,72.260279 138.98831,88.813294 c -9.59595,6.037452 -17.11277,14.833736 -21.61088,25.229356 z"
     style="fill:#ffc000;fill-opacity:1;fill-rule:evenodd;stroke:none" />
  <path
     id="path824"
     d="M 66.798782,92.171876 C 91.188488,35.755686 156.70084,9.7866465 213.11703,34.196344 c 20.59131,8.896245 38.00396,23.809951 49.95891,42.781944 L 216.47561,106.36589 C 199.9226,80.116964 165.23724,72.260279 138.98831,88.813294 c -9.59595,6.037452 -17.11277,14.833736 -21.61088,25.229356 z"
     style="fill:none;stroke:#a5a5a5;stroke-width:1.99915624px;stroke-linecap:butt;stroke-linejoin:miter;stroke-miterlimit:8;stroke-dasharray:none;stroke-opacity:1" />
  <path
     id="path826"
     d="M 108.941,42.612792 C 154.14192,13.665009 213.57683,21.121862 250.24136,60.345308 L 210.21825,97.749522 C 191.60611,77.857918 161.43884,74.05952 138.48852,88.753319 Z"
     style="fill:#70ad47;fill-opacity:1;fill-rule:evenodd;stroke:none" />
  <path
     id="path828"
     d="M 108.941,42.612792 C 154.14192,13.665009 213.57683,21.121862 250.24136,60.345308 L 210.21825,97.749522 C 191.60611,77.857918 161.43884,74.05952 138.48852,88.753319 Z"
     style="fill:none;stroke:#a5a5a5;stroke-width:1.99915624px;stroke-linecap:butt;stroke-linejoin:miter;stroke-miterlimit:8;stroke-dasharray:none;stroke-opacity:1" />
  <path
     id="path830"
     d="m 163.01817,141.59102 58.75521,-96.95908 -54.59696,99.35807 z"
     style="fill:#767171;fill-opacity:1;fill-rule:evenodd;stroke:none" />
  <text
     id="text836"
     y="15.882812"
     x="124.60521"
     style="font-style:normal;font-variant:normal;font-weight:400;font-size:16px;line-height:125%;font-family:Calibri;text-align:start;letter-spacing:0px;word-spacing:0px;text-anchor:start;fill:#000000;fill-opacity:1;stroke:none"
     xml:space="preserve"><tspan
       id="tspan834"
       y="15.882812"
       x="124.60521"><tspan
         id="tspan832"
         style="font-style:normal;font-variant:normal;font-weight:400;font-size:16px;font-family:Calibri;fill:#70ad47"
         dy="0"
         dx="0">Validity</tspan></tspan></text>
  <text
     id="text842"
     y="15.882812"
     x="175.7836"
     style="font-style:normal;font-variant:normal;font-weight:400;font-size:16px;line-height:125%;font-family:Calibri;text-align:start;letter-spacing:0px;word-spacing:0px;text-anchor:start;fill:#000000;fill-opacity:1;stroke:none"
     xml:space="preserve"><tspan
       id="tspan840"
       y="15.882812"
       x="175.7836"><tspan
         id="tspan838"
         style="font-style:normal;font-variant:normal;font-weight:400;font-size:16px;font-family:Calibri;fill:#70ad47"
         dy="0"
         dx="0">range</tspan></tspan></text>
  <text
     id="text848"
     y="90.653572"
     x="3.65625"
     style="font-style:normal;font-variant:normal;font-weight:400;font-size:16px;line-height:125%;font-family:Calibri;text-align:start;letter-spacing:0px;word-spacing:0px;text-anchor:start;fill:#000000;fill-opacity:1;stroke:none"
     xml:space="preserve"><tspan
       id="tspan846"
       y="90.653572"
       x="3.65625"><tspan
         id="tspan844"
         style="font-style:normal;font-variant:normal;font-weight:400;font-size:16px;font-family:Calibri;fill:#ffc000"
         dy="0"
         dx="0">Low</tspan></tspan></text>
  <text
     id="text854"
     y="90.653572"
     x="33.883492"
     style="font-style:normal;font-variant:normal;font-weight:400;font-size:16px;line-height:125%;font-family:Calibri;text-align:start;letter-spacing:0px;word-spacing:0px;text-anchor:start;fill:#000000;fill-opacity:1;stroke:none"
     xml:space="preserve"><tspan
       id="tspan852"
       y="90.653572"
       x="33.883492"><tspan
         id="tspan850"
         style="font-style:normal;font-variant:normal;font-weight:400;font-size:16px;font-family:Calibri;fill:#ffc000"
         dy="0"
         dx="0">limit</tspan></tspan></text>
  <text
     id="text860"
     y="76.119019"
     x="268.54446"
     style="font-style:normal;font-variant:normal;font-weight:400;font-size:16px;line-height:125%;font-family:Calibri;text-align:start;letter-spacing:0px;word-spacing:0px;text-anchor:start;fill:#000000;fill-opacity:1;stroke:none"
     xml:space="preserve"><tspan
       id="tspan858"
       y="76.119019"
       x="268.54446"><tspan
         id="tspan856"
         style="font-style:normal;font-variant:normal;font-weight:400;font-size:16px;font-family:Calibri;fill:#ffc000"
         dy="0"
         dx="0">High </tspan></tspan></text>
  <text
     id="text866"
     y="76.119019"
     x="301.65048"
     style="font-style:normal;font-variant:normal;font-weight:400;font-size:16px;line-height:125%;font-family:Calibri;text-align:start;letter-spacing:0px;word-spacing:0px;text-anchor:start;fill:#000000;fill-opacity:1;stroke:none"
     xml:space="preserve"><tspan
       id="tspan864"
       y="76.119019"
       x="301.65048"><tspan
         id="tspan862"
         style="font-style:normal;font-variant:normal;font-weight:400;font-size:16px;font-family:Calibri;fill:#ffc000"
         dy="0"
         dx="0">limit</tspan></tspan></text>
</svg>
